<?xml version="1.0" encoding="UTF-8"?>
<svg id="Layer_1" data-name="Layer 1" xmlns="http://www.w3.org/2000/svg" viewBox="0 0 512 512">
  <path d="M1-.5V511.5h512V-.5H1ZM442.04,299.34c-5.47,4.1-8.44,2.12-13.17,3.57-1.67.51-2.6,2.67-4.46,3.26-11.15,3.54-25.86-.77-35.02,2.32-5.15,1.74-32.48,31.06-32.95,35.93-.65,6.59,3.08,16.8,6.61,22.49,1.7,2.74,11.11,13.89,13.43,14.9,3.27,1.42,9.08.91,12.85,3.27,1.33,1.42-4.24,5.7-5.03,5.91-6.77,1.76-8.5-4.34-13.63-3.36l.63,3.86c-4.68.94-4.99-3.71-8.77-6.03-2.33-1.43-5.13-1.25-6.32-2.04-1.28-.84-1.81-4.53-3.88-6.13-3.34-2.57-10.86-5.26-14.89-7.94-7.77-5.16-19.35-15.92-28.8-16.08-4.14-.07-19.71,7.02-27.18,8.25-7.71,1.27-22.29.32-27.71,1.91-2.19.64-6.87,5.83-10.69,6.12l1.63,5.25c6.65-.48,13.8.53,20.36-.07,9.73-.89,9.22-3.73,19.4-1.34,6.6,1.55,7.6-2.25,9.6,7.78-3.99-1.57-4.52,3.48-5.87,3.85-2.12.58-7.24-5.62-10.89-3.83l-.67,5.15c-16.7-5.89-35.29-1.8-51.96-9.18l-.91-7.71c-9.8-1.61-19.8-3.82-29.67-4.89-1.94-.21-3.69,1.24-4.91,1.2-.42-.01-6.21-2.66-6.88-3.01-.41-.21-.34-2.19-.87-2.14-3.07.27-13.9,6.24-18.06,7.73-22.32,7.99-46.31,13.23-68.31,21.84-12.49,4.89-25.25,9.29-25.65,25.12-.19,7.61,5.41,19.18-.71,25.12-3.94-17.44-12.76-30.56.02-46.97,17.4-22.35,52.01-25.12,76.62-34.12,9.03-3.3,17.33-8.39,26.36-11.64l-2.5-4.38c6.08-9.26,13.21-20.41,14.82-31.59,2.44-16.96,7.41-27.64,14.42-43.52,10.5-23.79,43.58-34.69,67.9-32.5,25.77,2.32,52.26,22.78,78.46,19.18,7.16-.98,14.26-6.86,21.07-9.19l-.9-16.91c1.14-3.62,8-2.22,10.7-.68,7.36,4.18,4.46,15.66,9.82,19.8,5.21,4.03,22.57,5.86,30.48,9.44,12.39,5.6,23.64,16.81,36.16,22.45,3.55,3.45-6.84,17.12-10.08,19.55Z"/>
</svg>