<?xml version="1.0" encoding="UTF-8"?>
<svg id="Layer_1" data-name="Layer 1" xmlns="http://www.w3.org/2000/svg" viewBox="0 0 512 512">
  <path d="M255,35.5L7.32,464.5h495.37L255,35.5ZM327.52,235.01c-2.1,1.83-5.3,2.17-5.81,2.68-.6.61-.5,2.93-1.32,4.15-2.22,3.36-9.03,3.02-12.69,4.29-12.14,4.21-15.27,26.13-17.14,37.23,1.95-.87,3.76-1.73,5.57-.09l4.03,9.09c-1.18,4.09-6.14,3.4-8.58,5.5-1.88,1.61-3.11,6.45-5.02,8.94-2.38,3.1-4.97,3.91-7.85,6.12,1.08,14.76.64,28.95-2.42,43.48-2.36,11.24-6.5,24.13-18.66,27.75-.07,4.09,5.5,2.81,8.65,3.81,2.38.76,4.94,2.71,7.07,2.99,4.59.59,15.53-5.29,17.79,3.1,1.47,5.44-7.97-.43-6.58,6.05-2.32.62-3.73-1.77-5.55-2-2.63-.34-7.21,1.5-9.45,1.46-6.62-.13-11.21-3.7-18.27-1.54-2.08-.72-1.66-3.77-2.59-5.19-2.09-3.18-7.4-1.78-3.05-8.67l-9.39-4.03-17.55,10.02c-1.01,1.42,9.63,8.78,4.49,11.93l-4.01-3.02-3.01,3.04c-4.95-3.55-8.33-.9-12.93-.91-4.22,0-7.71-2.91-12.47-1.09-.57-7.33,10.8-5.49,11.85-9.67.48-1.92-3.07-9.06-5.36-9.31-2.77-.31-18.79,4.17-22.68,5.3-6.93,2.01-24.73,6.61-26.51,14.39-4.57,19.94,21.33,26.58,35.7,29.74,32.14,7.07,55.02,4.86,86.78-1.04.72-.13,3.94-1.39,2.54.54-12.47,8.51-30.97,12.01-45.92,12.96-24.92,1.57-92.41-2.23-95.2-36.54-2.2-27.12,35.64-33.8,54.79-39.29-4.3-6.95-3.37-15.16-5.71-22.72-2.27-7.33-8.18-13.56-8.33-21.67,10.27-33.97,7.67-75.57,46.39-91.38,4.89-1.99,10.27-1.14,14.83-2.13,4.33-.94,7.37-10.65,11.67-13.26-7.13-3.64-9.21-19.26-.43-20.37,11-1.39,15.32,11.25,27.39,7.9-1.14-7.72,3.43-15.79,11.47-9.98,1.95,1.41,3.64,5.03,4.44,5.5.44.26,7.54-.69,10.29-.26,5.68.88,15.66,5.92,21.93,8,3.57,1.18,13.53,2.14,14.54,5.42,1.47,4.79-3.66,19.25-7.74,22.8Z"/>
</svg>