<?xml version="1.0" encoding="UTF-8"?>
<svg id="Layer_1" data-name="Layer 1" xmlns="http://www.w3.org/2000/svg" viewBox="0 0 4.19 3.93">
  <path d="M1.36,3.23c-.11-.11-.34-.18-.42-.33-.26-.53.5-.35.78-.42.25-.06.83-.79,1.02-.48.08.14-.07.28-.04.43.07.3,1.02.88.14,1.37-.68.39-1.1-.16-1.49-.57ZM3.39.15c-.2.13.02.4-.01.44-.02.02-.19.05-.27.17-.7,1.06.05,1.25.41.31.09-.24-.02-.44-.01-.46.06-.08.42-.08.28-.51l-.4.05ZM.88.36c.03.27.28,1.52.66,1.44.14-.11.16-.15.13-.33,0-.06-.38-1.05-.43-1.17S1.12-.03.95,0c-.21.04-.08.26-.07.36ZM2.3,1.86c.37-.25.13-1.42-.15-1.55-.2-.1-.14.16-.15.25-.03.41-.06.83-.09,1.24l.39.07ZM.42.93c-.13-.2-.15-.27-.42-.23.23.61.26,1.35.9,1.7.18-.16-.35-1.27-.48-1.47ZM3.2,2.45c.42.43,1-.18,1-.65-.53-.07-.73.29-1,.65Z"/>
</svg>