<?xml version="1.0" encoding="UTF-8"?>
<svg id="Layer_1" data-name="Layer 1" xmlns="http://www.w3.org/2000/svg" viewBox="0 0 4.21 3.68">
  <path d="M1.6,1.9c.14.29.04.66.12.93.05.18.71.61.38.82-.11.07-1.06-.04-1.23-.08-.6-.14-1.14-.79-.72-1.38l1.45-.3ZM2.05,0c-.33-.07-.28.43-.31.5-.19.37-.48.52-.33,1.1.05.05.31-.07.37-.13C1.9,1.34,2.35.07,2.05,0ZM2.3,2.55c.18.23.47.17.7.1.14-.04,1.29-.68,1.09-.85-.09-.08-1.79.58-1.79.75ZM2.4,3.5c.64.1,1.03-.11,1.58-.37.14-.07.27.06.22-.22-.48.04-1.62.05-1.8.6ZM1.95,2.3c.33.09.79-.81,1.14-.95-.08-.08-.1-.15-.23-.14-.26.02-1.45.73-.91,1.08ZM.39.85c-.22.16-.08.8.16.95.37.09.25-.8.15-1l-.3.04Z"/>
</svg>