<?xml version="1.0" encoding="UTF-8"?>
<svg id="Layer_1" data-name="Layer 1" xmlns="http://www.w3.org/2000/svg" viewBox="0 0 4.9 5.02">
  <path d="M.21,3.01c.32-.23.62.12.91.07.24-.04.89-.62,1.12-.58.31.24-.08.45-.05.84.05.64.5.72-.25,1.36C.69,5.75.23,4.02.21,3.01ZM3.54.7c-.18.4-1.03.94-.84,1.6.17.2,1.03-1.05,1.08-1.27.02-.12-.08-.29-.07-.31.08-.13.69-.18.39-.71-.57-.06-.41.4-.55.69ZM1.4.45c0-.06-.15-.22-.1-.35-.3-.27-.41,1.16-.41,1.35,0,.33.04.58.31.8l.2-.1V.45ZM2.03,1.18c-.08.22-.62,1.13-.28,1.22.58.15.88-1.51.65-1.9-.38-.02-.27.43-.37.68ZM2.7,3.35c.12.61,1.22-.5,1.35-.75.07-.13,0-.29-.1-.3-.26-.02-1.29.82-1.25,1.04ZM0,2.15c0,.08.23.38.2.55.14.03.24-.04.28-.17.04-.12-.06-1.31-.1-1.46-.04-.13-.25-.31-.38-.37v1.45ZM4.19,2.2c.43.03.78-.11.7-.6-.11-.12-.85.46-.7.6Z"/>
</svg>