<?xml version="1.0" encoding="UTF-8"?>
<svg id="Layer_1" data-name="Layer 1" xmlns="http://www.w3.org/2000/svg" viewBox="0 0 4.85 5.28">
  <path d="M.39,3.33c.33-.34.82-.29,1.16-.49.24-.14.28-.55.55-.44.35.14-.18,1.18-.13,1.53.05.33.54.44.33.87-.17.35-1.72.65-2.09.39-.44-.3-.14-1.53.18-1.86ZM3.34.14c-.03.54,0,.24-.28.41-.36.24-.78.9-.81,1.34.22.22.88-.71.98-.86.09-.12.07-.34.14-.41.13-.14.61-.06.47-.62l-.51.14ZM2.96,3.05c-.35.28-.21.48.22.42.15-.02,1.35-.51,1.5-.6.31-.19.16-.39-.15-.36-.22.02-1.41.41-1.57.54ZM4.15,1.75c.02-.4-1.17.21-1.29.31-.28.21-.45.48-.4.84.22.22,1.41-1.04,1.69-1.15ZM3.95,3.74c-.21.04-1.61.53-1.29.85.77.07,1.27-.61,2-.6,0-.41-.42-.31-.7-.25ZM1.21,2.39c.34-.15.97-1.83.4-1.7-.15.04-.98,1.55-.4,1.7Z"/>
</svg>