<?xml version="1.0" encoding="UTF-8"?>
<svg id="Layer_1" data-name="Layer 1" xmlns="http://www.w3.org/2000/svg" viewBox="0 0 2.24 1.67">
  <defs>
    <style>
      .cls-1 {
        fill: #231f20;
      }
    </style>
  </defs>
  <path class="cls-1" d="M.19,0h0s0,.02,0,.02c0,0,0,.03,0,.07,0,0,.01.01.01.02H.21s-.01.03-.03.04h0s0-.03,0-.03H.19s0,0,0,0c0,.03,0,.05-.02.05v.03s0,0,0,.02c0,.03,0,.05,0,.07H.16c0,.07.01.12.04.17H.2s0,.03,0,.03v.02s.02-.02.02-.02c0,.02.01.03.02.03,0,.04.01.06.04.07.01.02.03.03.05.04,0,0,0,0,0,0,0-.01.01-.02.01-.02.03.03.05.07.07.13H.4s0,.03,0,.03c0,0,0,0,0,.01h0s0,0,0,.01H.42s-.01,0-.01,0h0s0,.04.02.05c0-.02,0-.02,0-.02h0s0,.03,0,.04h0s0,.04,0,.04h0v-.03h0v.04s0,.01,0,.02v.06s0,0,0,0c0,.06.01.1.01.11,0,.03,0,.04,0,.05v.02s0,.04.01.04c0,.04,0,.07-.01.07h0v.03h0s0,0,0-.01c0,0-.01.03-.03.08h0v.07s-.02.05-.03.08h0s-.01,0-.01.04c-.04.04-.06.07-.08.07H.27s0,0-.01,0c-.01,0-.02-.04-.03-.13.05-.03.07-.09.07-.19H.3c0-.08-.02-.14-.06-.19,0-.01-.01-.03-.03-.04,0-.01,0-.03,0-.04h-.01s0,0,0,0c0,.02,0,.03,0,.03-.04-.05-.07-.08-.07-.09v-.02S.13.99.13.99c0,0,0,.01-.01.01,0,0,0,0,0,0v-.03h.01s0,.01,0,.01H.12s-.01-.03-.03-.07h-.01s0,.01,0,.01c0-.02-.01-.03-.01-.03v-.03s-.01-.06-.02-.06c0,0,0,0,0,0,0,0,0,.01,0,.01,0-.02,0-.04,0-.05h.01s0,0,0,0v.02h0c0-.06-.01-.08-.02-.08H.02s0,.02,0,.04c0-.03-.01-.05-.01-.08v-.02s0-.04,0-.07v-.07s.02-.02.02-.05H.02s0-.03,0-.03H.01s0-.03,0-.03v-.02h0s0-.02,0-.05c0-.03,0-.04,0-.04h0s0,.02,0,.02h0s0-.02,0-.02v-.02s.02-.08.05-.16c.02-.04.03-.05.05-.05h0S.18,0,.19,0ZM.03,1.08h.01s.01.05.02.15h0v.04h0s0-.02,0-.02c0,0,0,.02.01.07v.02s0,.05.02.05h0s0,.01-.01.02c0,.04.01.06.03.09v-.03s.05.05.06.06h0v.07s0,.01-.01.01H.18s0,.03.01.04c0,0,0,.01,0,.01-.05-.02-.08-.05-.08-.07v-.03s-.01-.01-.02-.02h-.02s0,0,0,.02H.06s0,.02,0,.02c-.02.05-.03.07-.04.07h0s-.02-.03-.02-.1v-.13s.01-.08.01-.08c0,0,0-.01,0-.01h0s0,.01,0,.01h0v.02s0,.01,0,.01h0v-.19s0-.02,0-.02c0,0,0-.02,0-.03,0-.03.02-.05.03-.05,0-.01,0-.02,0-.02ZM0,1.27v.03h0s0,0,0-.01c0,0,0-.01,0-.02ZM.07.88v.02h0v-.02h0ZM.14.28h0s0,.05,0,.05h0v-.04s0-.01,0-.02ZM.17.04s0,.01,0,.02h0s0,0,0-.01H.18s0-.02,0-.02h0s0,0,0,.02ZM.2,0h0s0,0,0,.01h0s0,0,0,0c0,0,0,0,0-.01H.2ZM.25,0h.01v.02s.01-.01.01-.01c0,0,.01.01.01.04,0,0,0,.01,0,.02h.01s0,.02.01.02c0,0,0,0,0,0H.32s0-.03,0-.03H.32s0,0,0,0c.02.01.03.02.03.04h0s.01,0,.02,0c0,0,.01-.03.03-.07h0s.03.03.03.08v.06s0,0,0,0v.03s0,.32,0,.32c0,.02-.01.04-.02.05,0,0,0,0,0,.01,0,0,0,.01-.01.01h0s-.01,0-.02-.02H.39s0,0,0,0h0s0,.01,0,.01H.41s-.03-.05-.03-.1c0-.01,0-.03,0-.06H.37s0-.01,0-.01H.36s0-.02,0-.02H.37s0-.03,0-.03h-.01s-.02-.07-.06-.16v-.02s0,0,0,0h-.02s0,0,0,0c0,0,0,0,0-.01,0-.04,0-.07,0-.08H.27s0-.02,0-.02v.02h-.01v-.02s0-.01,0-.01ZM.43,1.38h0s0,.02,0,.03h0s0-.03,0-.03ZM.79.07h.02c-.03.06-.05.11-.05.14h0s0,0,0,0h0s0,.02,0,.02v.02h-.01s0-.01,0-.01c0,0,0,0,0,.02v.02h0s.01,0,.01,0h0v.06h0s0,0,0,0c0,0-.01.03-.02.1,0,.06,0,.09,0,.1v.04s0,.06,0,.06v.04s0,0,0,0c0,.02,0,.03,0,.04h.01s0,.02,0,.03v.03s-.02.07-.02.08c0,.03,0,.04,0,.05,0,.04,0,.06,0,.08v.03s.01.04.02.08c0,0,0,0,0,0v.2s-.02.04-.02.06c0,0,0,0,0,.02,0,0,0,.01-.01.03,0,.05.02.08.02.08,0,0,.02.02.03.05.01,0,.02.02.02.02v.05h0s0,0,0,0h-.01s-.02,0-.02,0c0,0,0,.01-.01.04-.01,0-.02-.01-.03-.01v-.03s-.02-.04-.03-.05h0l-.02.04s-.05-.08-.07-.12h0s0-.02,0-.02h0s-.02-.06-.03-.09h-.02c-.02-.08-.03-.13-.03-.16,0,0,0,0,0-.01v-.02s.01,0,.01-.03c0-.05,0-.08-.01-.08v-.03s0-.04-.02-.06c0-.05,0-.09,0-.13v-.06s0-.01.01-.01c0-.05,0-.08,0-.1,0-.02,0-.06,0-.11h0s0,.02,0,.02v-.04s0-.02,0-.02c.02-.11.03-.18.04-.2h0s.02-.01.02-.05c0,0-.01,0-.01-.02.05-.1.08-.16.1-.17h0s0,.02,0,.02h0s0,0,.01,0h.01s.07-.04.07-.04ZM.52.83h0s0,.02,0,.02h0s0-.02,0-.02h0ZM.82.11s0,.01,0,.01v.02s0,0-.02,0v-.02s0-.01,0-.02ZM.82,1.65h0s0,0,0,.01h0s0,0,0,0h0s0-.02,0-.02ZM.88,0h.03s0,.03,0,.04h0s.03,0,.03-.02c.02,0,.03.03.03.07h.02s0,0,0,0h0s0,.03.02.05h0s0,0,.02-.01c0,.02,0,.03.01.03v.04c.02.07.04.11.06.11,0,0,.01,0,.01.02,0,.02-.01.03-.01.05.03.06.05.11.05.15,0,.01,0,.02,0,.02.01.04.02.09.02.14,0,.01,0,.03,0,.04h0s.01.02.01.05v.13s-.02.04-.02.04h0s0,.02,0,.03c0,.01,0,.03,0,.04v.05s-.01.04-.01.05c0,.01,0,.02.02.03,0,.04-.01.07-.01.08h0s0-.05,0-.05h0s0,0,0,0c0,.03,0,.06,0,.08v.03s-.01.07-.03.07c-.01.01-.02.03-.02.05h0s0,.01,0,.02c0,.02,0,.03,0,.03h0s0-.03,0-.03h0s0,.04,0,.04c0,0-.01.01-.02.04-.01.02-.02.04-.03.04h0s0,0,0,0h0s0,.02,0,.02h0c-.05.08-.1.11-.15.11h0v-.11s.01-.02.01-.03h.02s0-.02,0-.02l.02-.08s.01-.01.01-.04v-.02s0,0,0-.02h0s0,.01,0,.01v-.38s0-.08.01-.08h0s-.01-.02-.01-.03c0,0,0-.01.01-.02,0,0,0-.02-.01-.03v-.08c0-.09,0-.13.02-.13v-.02s-.01,0-.01,0h0v-.31c0-.08-.02-.13-.05-.16,0,0,0,0,0,0v-.02s0-.01,0-.01c0,0,0,.01,0,.01h0v-.02s-.01-.03-.01-.06c0,0,0-.01,0-.01ZM1.24.04h.08s.02.05.02.05c0,0,.01-.02.02-.05h.09s.01.03.02.04l.02-.03s.02.02.02.05h0s0,0,0,0c0,0,0,0,0,.01,0,.02,0,.03,0,.05h0s0,0,0,0c0,.02,0,.04-.02.04,0,0-.01.02-.02.06,0,0,0,0,0,.01h0s0,.01,0,.02v.29s0,.01-.02.02h0s0,.07.02.07c0,.01,0,.02,0,.03,0,.07,0,.12,0,.16v.13s0,0,0,.01h0s0,.02,0,.03v.04s0,.03,0,.03h0s0,0,0,0h0s0,0,0,.01h0s.01,0,.01,0v.05s0,.01,0,.01c0,.02,0,.03,0,.04v.23s-.01.02-.01.02h.01v.17s0,.01,0,.01h0s0,0,0,0h-.08s-.01-.05-.04-.05c-.02,0-.03.01-.03.04h-.02s-.03.01-.03.01h0s0-.01,0-.04h0s0,0,0,.03h0s0-.02,0-.04h0s.01-.07.04-.09c0-.03,0-.04,0-.05v-.17s.01-.03.01-.05c0-.01-.01-.02-.01-.02v-.4s0-.01,0-.02v-.46h0s0-.03,0-.06c0-.04,0-.05,0-.05h-.01s-.01-.02-.04-.05v-.04s0,0,0,0c0-.04.01-.06.03-.06ZM1.65,1.08h0s.02.02.02.07v.13h0s0,.02,0,.02v.08s0,.01,0,.01h0s0,.04,0,.05c0,.03,0,.05.02.07v.03l-.02.04s0,.06,0,.06h-.02s0-.02,0-.02h0s-.02-.01-.02-.01v.04h-.08v-.04s-.02,0-.02,0c0,0-.01,0-.01-.02v-.04s0,0,0,0h0s0,0,0,0v-.03s0-.01,0-.01c0,.01,0,.03,0,.04h0s.02-.04.03-.04v-.02h0s.03-.08.06-.17c0,0,0,0,0,0v-.02c0-.05,0-.08.02-.08h0s0-.02,0-.02c0,0,0-.01,0-.02v-.03s0-.06.02-.06ZM1.71.02h.02s.01.02.02.02c0,0,0-.01,0-.02h.02s0,.02.01.02c0,0,0,0,0,0,0,0,0,.01,0,.01h0v-.03h.02v.02s.01-.01.02-.02h.02s0,0,0,.01h0s0,.02,0,.02h0s0,0,0,0c0,0,0,0,0,0v-.02h.01l.02.02s0,.05,0,.05c0,.02,0,.03,0,.03,0,0,0,0,0,0h0v.06s0,0,0,.01v.14l-.02.03v.04l.02.02v.11h0s0,.01,0,.02c0,0,0,.01,0,.02,0,0,0-.01.01-.01v.06s0,.03,0,.04v.33h-.01s0,0,0,.01h0s0,.04.01.06v.06h0v.22s0,.02,0,.02c0,0,0,.02,0,.02v.05s0,.06,0,.06v.06s0,0,0,.01c0,.02,0,.03,0,.03h-.09s0,0,0-.02h0v.02h-.01s-.02-.05-.03-.05h0l-.03.02s0,.02,0,.02h0s-.04.01-.04.01c-.02,0-.03-.03-.03-.06h0s.01-.07.04-.09c0-.06,0-.08,0-.08,0,0,0,0,0,0h0c-.01-.05-.02-.08-.02-.09h0s0-.04,0-.05v-.04s0-.04,0-.04c0,0,0-.01,0-.01,0,.01,0,.02,0,.03h0v-.1s-.01-.02-.01-.07v-.05s0,0,0-.01v-.05s0-.01,0-.01c0,0,0,0,0,0h0v-.03s0-.01,0-.02c0,0,0,0,0,0h0v-.04s.01-.03.01-.03,0-.02-.01-.05v-.15h.01s0-.03,0-.03c0-.03.01-.05.01-.07,0-.07,0-.12-.01-.14v-.02s0-.04,0-.06v-.07s0-.05-.02-.09c0-.02,0-.03,0-.03v.03s-.02-.02-.02-.05v-.02s0-.01,0-.01h0s0,.02.01.02c0,0,0,0,0,0v-.02h0s0,0,0,0h0s0-.04,0-.04ZM1.76,1.61s0,0,0,.01h0s0,0,0,0h0s0-.02,0-.02ZM1.93.4h0s0,0,0,.01h0ZM1.93,1.61h0s0,0,0,.01h0s0,0,0,0v-.02ZM1.98.02c.07,0,.13.08.19.23,0,0,0,.01,0,.01,0,.04.01.06.03.06,0,0,0,.01,0,.02,0,0,0,0,0,.02v.02s.02.05.02.05c0,.03,0,.04,0,.04,0,.03,0,.06.03.07v.02h0s.01.09.01.25v.06s-.02.04-.02.05v.05s0,.02,0,.03c0,0,0,.01,0,.02,0,0,0,0,0,.02-.01.02-.02.05-.02.09v.03s0,.01,0,.02c0,0,0,0,0,.02-.01.09-.03.16-.04.19,0,0,0,0,0,0,0,.07-.04.15-.11.23,0,0,0,0-.02,0,0-.01,0-.02,0-.03,0,0,0,0,0,0-.01,0-.02,0-.02,0,0,.02,0,.03,0,.03h0v-.02s0-.03,0-.05c0,0,0-.01,0-.02v-.02s0-.01,0-.01h0s0,0,0,.03c0-.01.01-.03.01-.05,0-.01,0-.03.01-.06h0s0,.01,0,.01c0-.01,0-.04,0-.07v-.03h0v.02h0v-.15s0-.02.02-.02c0-.02,0-.03,0-.03h0s0,.01,0,.01v-.08s.01,0,.01,0c0,0,0-.05-.01-.12v-.37s0-.03,0-.04v-.19c0-.11-.01-.17-.04-.19v-.03s0-.01,0-.01v-.03h0s0,.04,0,.04h0v-.03s0-.02.01-.04h-.01v-.02s0-.01,0-.01ZM2.03,1.36h0v.02h0s0,0,0-.01c0,0,0-.01,0-.01ZM2.17,1.3h0s0,0,0,0h0s0,0,0,0Z"/>
</svg>